<svg xml:space="preserve" viewBox="261.12 73.64383561643835 519.168 224" width="519.168" y="0px" x="0px" xmlns:xlink="http://www.w3.org/1999/xlink" xmlns="http://www.w3.org/2000/svg" id="Layer_1" version="1.1" style="max-height: 500px" height="224">
<path d="M591.520142,261.212311 &#10;&#9;C587.198853,242.001373 589.419495,224.410202 603.235535,210.093506 &#10;&#9;C617.327026,195.491333 634.982422,192.267609 653.886414,198.243027 &#10;&#9;C672.109802,204.003281 682.178101,217.483780 685.323303,236.092621 &#10;&#9;C688.605713,255.513046 684.265808,272.850372 668.611267,285.605530 &#10;&#9;C641.613892,307.602722 601.965393,295.016876 591.520142,261.212311 &#10;M660.671936,221.849304 &#10;&#9;C645.497681,204.961746 619.842285,208.545761 610.896057,228.984756 &#10;&#9;C605.608459,241.065216 605.742615,253.315292 611.956909,265.071686 &#10;&#9;C617.301270,275.182190 626.108276,280.436951 637.468140,280.591919 &#10;&#9;C649.051331,280.749939 658.212463,275.613434 663.601501,265.324677 &#10;&#9;C671.260132,250.703018 670.302124,236.236801 660.671936,221.849304 &#10;z" stroke="none" opacity="1.000000" fill="#000000"/>
<path d="M722.227905,236.216461 &#10;&#9;C732.102417,224.486633 741.842957,213.098846 751.315308,201.492126 &#10;&#9;C753.889526,198.337860 756.718201,196.763596 760.705994,197.026230 &#10;&#9;C765.242676,197.325012 769.885559,196.352890 775.383667,197.921188 &#10;&#9;C770.565979,203.641663 766.341980,208.696915 762.074219,213.714981 &#10;&#9;C755.927307,220.942734 749.831970,228.217453 743.538025,235.315567 &#10;&#9;C741.335327,237.799698 741.537659,239.705002 743.309265,242.321564 &#10;&#9;C753.670715,257.625122 763.893188,273.022888 774.125732,288.413391 &#10;&#9;C775.207520,290.040497 776.692932,291.515594 776.750488,294.328766 &#10;&#9;C770.744019,295.430908 764.675110,295.118896 758.624878,294.502899 &#10;&#9;C756.798950,294.316986 756.127014,292.439362 755.229370,291.064392 &#10;&#9;C747.857788,279.772980 740.516724,268.461639 733.127808,257.181610 &#10;&#9;C732.064270,255.557922 731.374634,253.562683 729.073669,252.628174 &#10;&#9;C724.718445,256.403870 721.429749,261.228455 717.578857,265.531708 &#10;&#9;C716.493896,266.744080 716.805298,268.342041 716.822998,269.843597 &#10;&#9;C716.899597,276.336975 716.793945,282.835785 717.026001,289.322937 &#10;&#9;C717.174133,293.459930 715.341064,294.814545 711.403442,294.957886 &#10;&#9;C699.647217,295.385834 699.656067,295.492859 699.658569,283.680267 &#10;&#9;C699.664307,256.870026 699.770752,230.059006 699.569214,203.250290 &#10;&#9;C699.533081,198.441940 700.987183,196.855713 705.796875,196.967346 &#10;&#9;C718.028015,197.251205 716.914185,196.041840 716.941467,207.936401 &#10;&#9;C716.966980,219.079758 716.946838,230.223206 716.946838,242.337814 &#10;&#9;C718.915833,240.050644 720.454407,238.263382 722.227905,236.216461 &#10;z" stroke="none" opacity="1.000000" fill="#000000"/>
<path d="M305.728638,261.172943 &#10;&#9;C298.935364,261.207794 292.603271,261.426056 286.291046,261.164764 &#10;&#9;C282.237000,260.996948 281.116547,262.604889 281.219452,266.426086 &#10;&#9;C281.429993,274.241608 281.129608,282.070190 281.300415,289.887726 &#10;&#9;C281.382629,293.649506 279.712341,295.142029 276.233856,294.804749 &#10;&#9;C262.183990,293.442596 263.784943,297.311127 263.743591,282.622009 &#10;&#9;C263.669098,256.161987 263.827820,229.700668 263.611450,203.242172 &#10;&#9;C263.571442,198.347961 265.216248,196.830078 269.924438,196.990814 &#10;&#9;C282.717804,197.427582 295.548462,196.227722 308.322632,197.617905 &#10;&#9;C325.882172,199.528870 336.912872,210.492264 337.327820,226.249435 &#10;&#9;C337.848419,246.019577 328.829834,257.410980 310.143951,260.573853 &#10;&#9;C308.833588,260.795654 307.513672,260.961334 305.728638,261.172943 &#10;M318.101196,220.619095 &#10;&#9;C314.951385,214.962341 309.787231,212.631134 303.663879,212.362915 &#10;&#9;C297.692963,212.101349 291.700012,212.382477 285.722260,212.221130 &#10;&#9;C282.594025,212.136703 281.189056,213.139252 281.249969,216.477768 &#10;&#9;C281.401520,224.783066 281.423798,233.095734 281.241486,241.399811 &#10;&#9;C281.162415,245.003174 282.743469,246.036850 286.023956,245.946701 &#10;&#9;C291.337494,245.800674 296.659393,245.971313 301.973785,245.842560 &#10;&#9;C316.460022,245.491623 323.369843,235.160049 318.101196,220.619095 &#10;z" stroke="none" opacity="1.000000" fill="#000000"/>
<path d="M557.909180,241.179962 &#10;&#9;C552.813660,235.407166 546.674072,234.881119 540.299744,237.076370 &#10;&#9;C532.420837,239.789825 529.696777,246.511734 529.417542,254.030426 &#10;&#9;C528.991150,265.512787 529.044067,277.024536 529.296570,288.514954 &#10;&#9;C529.403320,293.375153 527.549805,294.920502 522.917358,294.956390 &#10;&#9;C512.637573,295.036072 512.633911,295.193604 512.633301,285.193939 &#10;&#9;C512.631592,257.200928 512.746277,229.207031 512.530640,201.215683 &#10;&#9;C512.492493,196.259140 514.232056,194.936874 518.878540,194.996948 &#10;&#9;C529.190308,195.130295 529.195618,194.943069 529.201599,205.291199 &#10;&#9;C529.206177,213.274292 529.202454,221.257401 529.202454,230.674194 &#10;&#9;C535.054871,224.822220 541.139771,222.077545 548.271484,221.239807 &#10;&#9;C562.845825,219.527802 575.573853,229.177841 577.251404,243.805206 &#10;&#9;C579.041321,259.412415 577.764954,275.088623 578.101990,290.729797 &#10;&#9;C578.160156,293.431366 576.882141,294.736237 574.238342,294.818481 &#10;&#9;C574.071960,294.823639 573.905579,294.836090 573.739868,294.852509 &#10;&#9;C561.600830,296.054138 561.749207,296.042755 561.544922,283.863098 &#10;&#9;C561.352417,272.384338 562.361328,260.881226 560.846130,249.422699 &#10;&#9;C560.467041,246.555328 559.715881,243.892853 557.909180,241.179962 &#10;z" stroke="none" opacity="1.000000" fill="#000000"/>
<path d="M448.986176,225.772034 &#10;&#9;C464.340454,218.777832 478.674072,219.148010 491.945435,229.808990 &#10;&#9;C496.101257,233.147385 498.493378,237.703613 500.268250,242.644180 &#10;&#9;C501.249939,245.376740 501.029724,247.190613 497.549988,247.356750 &#10;&#9;C495.897156,247.435654 494.240112,247.752792 492.619446,248.116028 &#10;&#9;C487.899261,249.173904 484.804382,248.613678 481.905975,243.484650 &#10;&#9;C475.507660,232.162170 457.195679,233.593903 451.396301,245.550064 &#10;&#9;C447.254486,254.089005 447.250702,262.958466 451.396179,271.595673 &#10;&#9;C454.715179,278.510956 460.744476,281.553192 468.049683,281.474701 &#10;&#9;C475.280853,281.397034 480.940552,277.937866 483.570831,270.943848 &#10;&#9;C484.725098,267.874603 486.485199,267.257751 489.255981,267.736786 &#10;&#9;C490.896088,268.020325 492.540436,268.543427 494.178802,268.527863 &#10;&#9;C502.023376,268.453583 502.301758,270.167938 499.108490,277.355652 &#10;&#9;C489.468262,299.054932 456.889709,302.950195 440.332184,284.688049 &#10;&#9;C427.611938,270.658203 427.104187,237.619446 448.986176,225.772034 &#10;z" stroke="none" opacity="1.000000" fill="#000000"/>
<path d="M378.187256,222.806915 &#10;&#9;C388.521729,222.359131 387.707794,224.393463 387.817444,213.669815 &#10;&#9;C387.946259,201.074875 386.680756,202.970932 398.728882,202.610535 &#10;&#9;C403.189545,202.477097 404.856659,203.626007 404.589081,208.487473 &#10;&#9;C403.815582,222.542023 404.034119,222.807617 417.990936,222.561966 &#10;&#9;C423.514923,222.464737 424.309875,224.940414 424.180695,229.480896 &#10;&#9;C423.977356,236.627853 423.901001,236.958939 418.179138,237.097137 &#10;&#9;C418.012634,237.101151 417.846069,237.100464 417.679535,237.103149 &#10;&#9;C404.204895,237.320206 404.234680,237.319794 404.425079,250.605042 &#10;&#9;C404.508545,256.429504 404.345490,262.258087 404.465302,268.081329 &#10;&#9;C404.685425,278.779633 407.530182,281.353943 418.145966,280.693207 &#10;&#9;C419.928467,280.582275 421.707001,280.407379 423.597748,280.253021 &#10;&#9;C424.863953,284.112457 424.212097,287.774200 424.256012,291.383728 &#10;&#9;C424.285614,293.819092 422.462036,294.399200 420.600555,294.687561 &#10;&#9;C413.455109,295.794556 406.330811,296.056885 399.448334,293.305756 &#10;&#9;C393.145355,290.786255 389.745453,285.852478 388.706726,279.342102 &#10;&#9;C386.885223,267.925293 388.211151,256.403656 387.842590,244.934631 &#10;&#9;C387.637665,238.556931 389.426117,236.623230 380.384979,237.110123 &#10;&#9;C377.015869,237.291565 375.194183,235.833145 375.735260,232.413055 &#10;&#9;C376.242065,229.209686 373.911743,225.377167 378.187256,222.806915 &#10;z" stroke="none" opacity="1.000000" fill="#000000"/>
<path d="M674.960571,134.631439 &#10;&#9;C671.445862,120.233353 676.052185,107.455734 686.999573,100.500336 &#10;&#9;C698.238831,93.359497 712.250671,94.009262 722.494446,102.146217 &#10;&#9;C735.820801,112.731796 737.136597,133.415421 725.259216,145.613464 &#10;&#9;C725.026855,145.852051 724.820923,146.134552 724.548035,146.312943 &#10;&#9;C713.023499,153.846771 708.958313,165.655380 706.345886,178.247284 &#10;&#9;C705.810181,180.829681 704.631714,182.654755 702.019531,183.038803 &#10;&#9;C700.070984,183.325272 698.674377,184.357452 697.203369,185.455994 &#10;&#9;C694.944336,187.143021 692.367615,187.627716 689.623474,187.083542 &#10;&#9;C683.276672,185.824966 676.642273,175.927567 677.928345,169.615921 &#10;&#9;C678.787231,165.400818 679.892700,161.229645 680.594727,156.990265 &#10;&#9;C681.932129,148.914307 677.786743,142.135284 674.960571,134.631439 &#10;M715.536804,137.750977 &#10;&#9;C714.191772,140.220688 711.977661,141.152451 709.311279,141.142181 &#10;&#9;C707.652649,141.135803 706.258240,141.571075 705.771057,143.261108 &#10;&#9;C704.078735,149.130859 701.779724,154.842331 700.786682,160.900146 &#10;&#9;C704.630554,163.148788 706.981995,162.683594 708.505066,158.329926 &#10;&#9;C709.837097,154.522354 712.709961,151.589340 715.713684,148.900375 &#10;&#9;C718.190613,146.682999 720.873474,144.654922 723.109741,142.217041 &#10;&#9;C730.731445,133.908340 731.686401,121.489220 725.659180,111.648270 &#10;&#9;C719.798157,102.078682 707.882385,97.327354 697.146301,100.278923 &#10;&#9;C682.044434,104.430740 674.140991,119.229095 679.097168,134.272903 &#10;&#9;C681.415283,141.309219 685.632141,147.807159 684.544495,155.763275 &#10;&#9;C684.259460,157.848618 686.384277,158.288467 688.038452,158.552170 &#10;&#9;C690.034058,158.870316 690.610596,157.504837 690.872375,155.878128 &#10;&#9;C691.558472,151.615402 692.062683,147.311325 693.007202,143.106339 &#10;&#9;C693.691284,140.060852 693.942932,137.859207 690.334290,136.336243 &#10;&#9;C687.553284,135.162537 686.193115,132.388245 687.202087,129.241776 &#10;&#9;C688.127441,126.356239 690.422485,124.939644 693.404846,125.368134 &#10;&#9;C696.630371,125.831558 698.378357,127.944878 698.351135,131.249054 &#10;&#9;C698.334106,133.318420 698.896301,134.769012 701.092773,135.349945 &#10;&#9;C703.299500,135.933563 704.001587,134.451111 704.853699,132.964096 &#10;&#9;C706.525146,130.046982 708.989807,128.417313 712.318115,129.745224 &#10;&#9;C715.483215,131.008072 716.772278,133.583282 715.536804,137.750977 &#10;M694.962708,156.565704 &#10;&#9;C694.980591,157.568176 694.041565,158.904617 696.372131,159.400330 &#10;&#9;C698.992859,153.112045 700.494873,146.480606 702.415161,140.010483 &#10;&#9;C699.274719,138.605682 697.515259,138.434814 697.162231,142.114395 &#10;&#9;C696.721436,146.709579 695.797607,151.258408 694.962708,156.565704 &#10;M689.061829,168.711990 &#10;&#9;C687.119263,168.396545 685.176636,168.081085 683.234070,167.765625 &#10;&#9;C683.171448,168.245972 683.108765,168.726318 683.046143,169.206680 &#10;&#9;C689.540771,170.584091 696.035339,171.961502 702.529907,173.338913 &#10;&#9;C702.624084,172.911301 702.718201,172.483688 702.812378,172.056076 &#10;&#9;C698.485718,171.015106 694.159119,169.974136 689.061829,168.711990 &#10;M702.062622,167.399017 &#10;&#9;C702.389038,167.427094 702.737122,167.536194 703.034790,167.456680 &#10;&#9;C703.257874,167.397064 703.416077,167.094666 703.803650,166.692184 &#10;&#9;C697.431274,164.634644 691.055054,163.274902 684.606079,162.267487 &#10;&#9;C684.511047,162.697830 684.416077,163.128189 684.321045,163.558548 &#10;&#9;C690.018005,164.783707 695.714966,166.008865 702.062622,167.399017 &#10;M700.204163,178.534393 &#10;&#9;C700.348145,178.284027 700.518372,178.043304 700.616638,177.776108 &#10;&#9;C700.639771,177.713242 700.437927,177.494461 700.309082,177.459473 &#10;&#9;C694.388000,175.851898 688.446838,174.344421 682.364807,173.572449 &#10;&#9;C682.269470,173.984787 682.174133,174.397141 682.078796,174.809479 &#10;&#9;C687.923157,176.072311 693.767517,177.335129 700.204163,178.534393 &#10;M687.956055,182.140213 &#10;&#9;C689.928345,183.402740 691.879395,184.133957 694.023499,182.018402 &#10;&#9;C689.235718,180.361542 689.235718,180.361542 687.956055,182.140213 &#10;z" stroke="none" opacity="1.000000" fill="#000000"/>
<path d="M348.998840,225.349182 &#10;&#9;C349.616943,222.761215 351.331024,222.720123 353.028717,222.700500 &#10;&#9;C355.359985,222.673569 357.715851,222.898438 360.018127,222.636856 &#10;&#9;C364.587738,222.117615 366.205902,223.945663 366.144226,228.534164 &#10;&#9;C365.945129,243.353577 366.063995,258.177277 366.059998,272.999298 &#10;&#9;C366.058502,278.495056 365.901672,283.996613 366.106323,289.484650 &#10;&#9;C366.252319,293.400604 364.521729,294.687805 360.809998,294.884796 &#10;&#9;C348.851776,295.519440 348.846222,295.614685 348.855988,283.765503 &#10;&#9;C348.871887,264.447540 348.903290,245.129578 348.998840,225.349182 &#10;z" stroke="none" opacity="1.000000" fill="#000000"/>
<path d="M363.741089,196.088165 &#10;&#9;C368.599915,201.125320 369.127869,206.352081 365.495087,210.513901 &#10;&#9;C361.828522,214.714462 355.617950,215.406525 351.030396,212.125748 &#10;&#9;C346.842651,209.130829 345.714142,203.341064 348.428162,198.774673 &#10;&#9;C351.216278,194.083633 356.982697,192.967453 363.741089,196.088165 &#10;z" stroke="none" opacity="1.000000" fill="#000000"/>
<path d="M748.580322,114.086014 &#10;&#9;C746.348267,114.772690 744.461792,115.353630 742.554565,115.855507 &#10;&#9;C741.361694,116.169418 740.144592,116.129227 739.745972,114.688477 &#10;&#9;C739.332031,113.192139 740.536255,112.623154 741.626221,112.272949 &#10;&#9;C743.654724,111.621170 745.719971,111.064163 747.799011,110.597519 &#10;&#9;C748.754089,110.383133 749.861328,110.413048 750.259216,111.614166 &#10;&#9;C750.655457,112.810417 749.737427,113.380569 748.580322,114.086014 &#10;z" stroke="none" opacity="1.000000" fill="#000000"/>
<path d="M750.679932,135.348389 &#10;&#9;C751.139282,137.545395 749.932800,138.235840 748.504028,137.867279 &#10;&#9;C745.604370,137.119293 742.187988,137.446121 739.534729,134.066498 &#10;&#9;C743.811218,131.725159 747.116516,133.659210 750.679932,135.348389 &#10;z" stroke="none" opacity="1.000000" fill="#000000"/>
<path d="M675.525879,100.423065 &#10;&#9;C670.757935,99.941330 668.756531,96.693352 667.372437,92.787407 &#10;&#9;C671.651672,93.586746 674.976685,95.441063 675.525879,100.423065 &#10;z" stroke="none" opacity="1.000000" fill="#000000"/>
<path d="M662.979004,114.657326 &#10;&#9;C664.880859,115.026276 666.257019,115.496323 666.738403,117.187561 &#10;&#9;C663.136414,119.499306 658.506958,118.439644 656.015625,114.638153 &#10;&#9;C658.223083,112.918869 660.418640,114.123512 662.979004,114.657326 &#10;z" stroke="none" opacity="1.000000" fill="#000000"/>
<path d="M715.281067,83.344177 &#10;&#9;C714.359680,85.527718 714.914124,88.155968 711.605164,89.125290 &#10;&#9;C710.041992,84.897079 711.169250,81.505959 713.520935,78.156464 &#10;&#9;C716.605591,79.326805 715.455505,81.289993 715.281067,83.344177 &#10;z" stroke="none" opacity="1.000000" fill="#000000"/>
<path d="M729.945435,95.176697 &#10;&#9;C732.202087,93.192795 733.122253,89.979095 737.242065,90.043884 &#10;&#9;C736.863647,94.270454 734.252625,97.033234 731.330933,98.465446 &#10;&#9;C728.694397,99.757835 728.581421,97.450935 729.945435,95.176697 &#10;z" stroke="none" opacity="1.000000" fill="#000000"/>
<path d="M691.347046,80.856049 &#10;&#9;C693.261963,86.510124 693.261963,86.510124 692.199158,89.937317 &#10;&#9;C688.420410,87.749786 688.095093,83.958580 688.164246,80.582977 &#10;&#9;C688.209229,78.385651 690.079712,78.913101 691.347046,80.856049 &#10;z" stroke="none" opacity="1.000000" fill="#000000"/>
<path d="M725.660645,119.700127 &#10;&#9;C725.908936,120.566673 726.129639,121.047119 726.127625,121.526634 &#10;&#9;C726.120544,123.238213 727.060913,125.760048 724.654297,126.117203 &#10;&#9;C721.904602,126.525276 722.570312,123.622498 722.289795,122.105522 &#10;&#9;C721.506531,117.869469 719.687012,114.340240 716.434998,111.501602 &#10;&#9;C715.261292,110.477058 713.552246,109.634682 714.226929,107.535934 &#10;&#9;C719.090332,106.879692 723.096191,111.063744 725.660645,119.700127 &#10;z" stroke="none" opacity="1.000000" fill="#000000"/>
</svg>